<svg width="41.000000" height="35.539062" viewBox="0 0 41 35.5391" fill="none" xmlns="http://www.w3.org/2000/svg" xmlns:xlink="http://www.w3.org/1999/xlink">
	<desc>
			Created with Pixso.
	</desc>
	<defs/>
	<path id="Vector" d="M18.27 14.89C18.27 12.24 23.25 10.09 29.38 10.09C35.52 10.09 40.5 12.24 40.5 14.89C40.5 17.53 35.52 19.68 29.38 19.68C23.25 19.68 18.27 17.53 18.27 14.89ZM18.27 22.56C18.27 25.21 23.25 27.36 29.38 27.36C35.52 27.36 40.5 25.21 40.5 22.56M0.5 12.97C0.5 15.62 5.47 17.76 11.61 17.76C14.11 17.76 16.42 17.41 18.27 16.81M0.5 19.68C0.5 22.33 5.47 24.48 11.61 24.48C14.11 24.48 16.41 24.12 18.27 23.52M22.72 11.05L22.72 5.29C22.72 2.64 17.74 0.5 11.61 0.5C5.47 0.5 0.5 2.64 0.5 5.29L0.5 26.4C0.5 29.05 5.47 31.2 11.61 31.2C14.11 31.2 16.41 30.84 18.27 30.24M18.27 14.89L18.27 30.24C18.27 32.88 23.25 35.03 29.38 35.03C35.52 35.03 40.5 32.88 40.5 30.24L40.5 14.89M22.72 5.29C22.72 7.94 17.74 10.09 11.61 10.09C5.47 10.09 0.5 7.94 0.5 5.29" stroke="#048A2E" stroke-opacity="1.000000" stroke-width="1.000000" stroke-linejoin="round" stroke-linecap="round"/>
</svg>
