<svg width="32.446289" height="40.000000" viewBox="0 0 32.4463 40" fill="none" xmlns="http://www.w3.org/2000/svg" xmlns:xlink="http://www.w3.org/1999/xlink">
	<desc>
			Created with Pixso.
	</desc>
	<defs>
		<clipPath id="clip78_731">
			<rect id="Ресурс 1 1" rx="-0.500000" width="31.446690" height="39.000000" transform="translate(0.500000 0.500000)" fill="white" fill-opacity="0"/>
		</clipPath>
	</defs>
	<rect id="Ресурс 1 1" rx="-0.500000" width="31.446690" height="39.000000" transform="translate(0.500000 0.500000)" fill="#FFFFFF" fill-opacity="0"/>
	<g clip-path="url(#clip78_731)">
		<path id="Vector" d="M3.46 35.04L16.65 39.32L16.65 40L0 37.51L0 10.59L0.86 10.81L3.46 11.48L3.46 35.04Z" fill="#FFFFFF" fill-opacity="1.000000" fill-rule="nonzero"/>
		<path id="Vector" d="M16.65 38.32L16.65 39.32L4.89 33.61L4.89 11.85L6.63 12.29L6.63 32.37L16.65 38.32Z" fill="#FFFFFF" fill-opacity="1.000000" fill-rule="nonzero"/>
		<path id="Vector" d="M28.41 11.85L28.4 33.61L16.65 39.32L16.65 38.32L16.81 38.32L26.66 32.43L26.66 12.3L28.41 11.85Z" fill="#FFFFFF" fill-opacity="1.000000" fill-rule="nonzero"/>
		<path id="Vector" d="M32.44 10.82L32.44 35.72L16.65 40L16.65 39.32L29.82 35.05L29.83 11.49L32.44 10.82Z" fill="#FFFFFF" fill-opacity="1.000000" fill-rule="nonzero"/>
		<path id="Vector" d="M3.46 35.04L16.65 39.32L16.65 40L0.85 35.71L0.86 10.59L3.46 11.29L3.46 35.04Z" fill="#0A4CAE" fill-opacity="1.000000" fill-rule="nonzero"/>
		<path id="Vector" d="M16.65 38.32L16.65 39.32L4.89 33.61L4.89 11.68L6.63 12.15L6.63 32.37L16.65 38.32Z" fill="#0A72A0" fill-opacity="1.000000" fill-rule="nonzero"/>
		<path id="Vector" d="M28.41 11.69L28.4 33.61L16.65 39.32L16.65 38.32L16.81 38.32L26.66 32.43L26.66 12.16L28.41 11.69Z" fill="#0A72A0" fill-opacity="1.000000" fill-rule="nonzero"/>
		<path id="Vector" d="M32.44 10.59L32.44 35.72L16.65 40L16.65 39.32L29.82 35.05L29.83 11.3L32.44 10.59Z" fill="#0A4CAE" fill-opacity="1.000000" fill-rule="nonzero"/>
		<g opacity="0.210000">
			<path id="Vector" d="M0.86 10.59L3.46 11.29L3.46 30.49L0.85 28.94L0.86 10.59Z" fill="#57E7FF" fill-opacity="1.000000" fill-rule="nonzero"/>
		</g>
		<g opacity="0.210000">
			<path id="Vector" d="M6.63 9.09L6.63 32.37L4.89 31.33L4.89 8.21L6.63 9.09Z" fill="#57E7FF" fill-opacity="1.000000" fill-rule="nonzero"/>
		</g>
		<g opacity="0.210000">
			<path id="Vector" d="M28.41 8.21L28.4 31.47L16.87 38.32L16.81 38.32L26.66 32.43L26.66 9.1L28.41 8.21Z" fill="#57E7FF" fill-opacity="1.000000" fill-rule="nonzero"/>
		</g>
		<g opacity="0.210000">
			<path id="Vector" d="M32.44 10.59L32.44 29.08L29.82 30.63L29.83 11.3L32.44 10.59Z" fill="#57E7FF" fill-opacity="1.000000" fill-rule="nonzero"/>
		</g>
		<g opacity="0.210000">
			<path id="Vector" d="M0.86 10.59L3.46 11.29L3.46 18.38L0.86 16.83L0.86 10.59Z" fill="#57E7FF" fill-opacity="1.000000" fill-rule="nonzero"/>
		</g>
		<g opacity="0.210000">
			<path id="Vector" d="M6.63 9.09L6.63 20.26L4.89 19.22L4.89 8.21L6.63 9.09Z" fill="#57E7FF" fill-opacity="1.000000" fill-rule="nonzero"/>
		</g>
		<g opacity="0.210000">
			<path id="Vector" d="M28.41 8.21L28.41 19.36L26.66 20.4L26.66 9.1L28.41 8.21Z" fill="#57E7FF" fill-opacity="1.000000" fill-rule="nonzero"/>
		</g>
		<g opacity="0.210000">
			<path id="Vector" d="M32.44 10.59L32.44 16.97L29.83 18.52L29.83 11.3L32.44 10.59Z" fill="#57E7FF" fill-opacity="1.000000" fill-rule="nonzero"/>
		</g>
		<path id="Vector" d="M16.65 38.32L16.65 39.32L4.89 33.61L4.89 10.38L6.63 10.94L6.63 32.37L16.65 38.32Z" fill="#FFFFFF" fill-opacity="1.000000" fill-rule="nonzero"/>
		<path id="Vector" d="M16.65 38.32L16.65 39.32L4.89 33.61L4.89 8.21L6.63 9.09L6.63 32.37L16.65 38.32Z" fill="#0A4CAE" fill-opacity="1.000000" fill-rule="nonzero"/>
		<path id="Vector" d="M6.63 32.37L16.65 38.32L16.65 38.41L6.63 32.43L6.63 32.37Z" fill="#FFFFFF" fill-opacity="1.000000" fill-rule="nonzero"/>
		<path id="Vector" d="M28.41 10.38L28.4 33.61L16.65 39.32L16.65 38.32L16.81 38.32L26.66 32.43L26.66 10.95L28.41 10.38Z" fill="#FFFFFF" fill-opacity="1.000000" fill-rule="nonzero"/>
		<path id="Vector" d="M28.41 8.21L28.4 33.61L16.65 39.32L16.65 38.32L16.81 38.32L26.66 32.43L26.66 9.1L28.41 8.21Z" fill="#0A4CAE" fill-opacity="1.000000" fill-rule="nonzero"/>
		<path id="Vector" d="M16.81 38.32L16.65 38.41L16.65 38.32L16.81 38.32Z" fill="#FFFFFF" fill-opacity="1.000000" fill-rule="nonzero"/>
		<path id="Vector" d="M12.97 3.38L12.97 34.44L8.11 31.6L8.11 0L12.97 3.38Z" fill="#048A2E" fill-opacity="1.000000" fill-rule="nonzero"/>
		<path id="Vector" d="M25.19 0L25.19 31.6L20.32 34.44L20.32 3.38L25.19 0Z" fill="#048A2E" fill-opacity="1.000000" fill-rule="nonzero"/>
		<path id="Vector" d="M16.65 5.28L16.65 36.61L14.39 35.3L14.39 3.69L16.65 5.28Z" fill="#048A2E" fill-opacity="1.000000" fill-rule="nonzero"/>
		<path id="Vector" d="M18.9 3.69L18.9 35.3L16.65 36.61L16.65 5.28L18.9 3.69Z" fill="#048A2E" fill-opacity="1.000000" fill-rule="nonzero"/>
		<g opacity="0.160000">
			<path id="Vector" d="M12.97 3.38L12.97 25.35L8.11 22.5L8.11 0L12.97 3.38Z" fill="#50FFC9" fill-opacity="1.000000" fill-rule="nonzero"/>
		</g>
		<g opacity="0.160000">
			<path id="Vector" d="M18.9 3.69L18.9 26.19L16.65 27.51L14.39 26.19L14.39 3.69L16.65 5.28L18.9 3.69Z" fill="#50FFC9" fill-opacity="1.000000" fill-rule="nonzero"/>
		</g>
		<g opacity="0.160000">
			<path id="Vector" d="M25.19 0L25.19 22.5L20.32 25.35L20.32 3.38L25.19 0Z" fill="#50FFC9" fill-opacity="1.000000" fill-rule="nonzero"/>
		</g>
		<g opacity="0.160000">
			<path id="Vector" d="M12.97 3.38L12.97 14.27L11.94 13.66L11.94 13.66L11.73 13.54L11.73 13.54L8.17 11.45L8.11 11.41L8.11 0L12.97 3.38Z" fill="#50FFC9" fill-opacity="1.000000" fill-rule="nonzero"/>
		</g>
		<g opacity="0.160000">
			<path id="Vector" d="M18.9 3.69L18.9 15.1L16.65 16.42L14.39 15.1L14.39 3.69L16.65 5.28L18.9 3.69Z" fill="#50FFC9" fill-opacity="1.000000" fill-rule="nonzero"/>
		</g>
		<g opacity="0.160000">
			<path id="Vector" d="M25.19 0L25.19 11.41L25.14 11.44L25.13 11.44L21.57 13.54L21.56 13.54L21.36 13.66L21.36 13.66L20.32 14.27L20.32 3.38L25.19 0Z" fill="#50FFC9" fill-opacity="1.000000" fill-rule="nonzero"/>
		</g>
	</g>
</svg>
