<svg width="25.562500" height="22.133789" viewBox="0 0 25.5625 22.1338" fill="none" xmlns="http://www.w3.org/2000/svg" xmlns:xlink="http://www.w3.org/1999/xlink">
	<desc>
			Created with Pixso.
	</desc>
	<defs/>
	<path id="Vector" d="M12.78 21.35L12.78 5.92C13.63 2.54 16.87 0.81 23.92 0.78C24.03 0.78 24.14 0.8 24.25 0.84C24.35 0.88 24.45 0.95 24.53 1.03C24.61 1.11 24.67 1.2 24.71 1.3C24.75 1.41 24.78 1.52 24.78 1.63L24.78 17.06C24.78 17.29 24.69 17.51 24.53 17.67C24.36 17.83 24.15 17.92 23.92 17.92C17.06 17.92 14.41 19.3 12.78 21.35C11.15 19.31 8.49 17.92 1.63 17.92C1.1 17.92 0.78 17.49 0.78 16.96L0.78 1.63C0.78 1.52 0.8 1.41 0.84 1.3C0.88 1.2 0.95 1.11 1.03 1.03C1.11 0.95 1.2 0.88 1.3 0.84C1.41 0.8 1.52 0.78 1.63 0.78C8.68 0.81 11.92 2.54 12.78 5.92" stroke="#FFFFFF" stroke-opacity="1.000000" stroke-width="1.562500" stroke-linejoin="round"/>
</svg>
