<svg width="24.000000" height="21.176758" viewBox="0 0 24 21.1768" fill="none" xmlns="http://www.w3.org/2000/svg" xmlns:xlink="http://www.w3.org/1999/xlink">
	<desc>
			Created with Pixso.
	</desc>
	<defs/>
	<path id="Vector" d="M8.47 0C6.25 0 4.22 0.36 2.71 0.96C1.96 1.27 1.31 1.65 0.82 2.11C0.34 2.57 0 3.15 0 3.84C0 3.97 0.01 4.11 0.03 4.23C0.01 4.31 0 4.39 0 4.47L0 8.86C0 9.54 0.34 10.13 0.82 10.59C1.3 11.05 1.96 11.43 2.71 11.73C3.9 12.21 5.41 12.54 7.08 12.65C7.09 12.67 7.09 12.69 7.09 12.7C7.07 12.78 7.05 12.86 7.05 12.94L7.05 17.33C7.05 18.01 7.4 18.6 7.88 19.06C8.36 19.52 9.02 19.9 9.77 20.2C11.28 20.81 13.31 21.17 15.52 21.17C17.74 21.17 19.77 20.81 21.28 20.2C22.03 19.9 22.68 19.52 23.17 19.06C23.65 18.6 24 18.02 24 17.33L24 12.94C24 12.86 23.98 12.78 23.96 12.71C23.98 12.58 24 12.44 24 12.31C24 11.62 23.65 11.04 23.17 10.58C22.69 10.12 22.03 9.74 21.28 9.44C20.1 8.96 18.59 8.63 16.94 8.52L16.94 4.47C16.94 4.39 16.92 4.31 16.9 4.23C16.92 4.11 16.94 3.97 16.94 3.84C16.94 3.15 16.59 2.57 16.11 2.11C15.63 1.65 14.97 1.27 14.22 0.96C12.71 0.36 10.68 0 8.47 0ZM1.41 3.84C1.41 3.66 1.49 3.42 1.8 3.13C2.11 2.83 2.59 2.54 3.24 2.27C4.54 1.75 6.39 1.41 8.47 1.41C10.54 1.41 12.39 1.75 13.69 2.27C14.34 2.54 14.83 2.83 15.13 3.13C15.44 3.42 15.52 3.66 15.52 3.84C15.52 4.02 15.44 4.26 15.13 4.55C14.83 4.84 14.34 5.14 13.69 5.4C12.39 5.93 10.54 6.27 8.47 6.27C6.39 6.27 4.54 5.93 3.24 5.4C2.59 5.14 2.1 4.84 1.8 4.55C1.49 4.26 1.41 4.02 1.41 3.84ZM1.41 8.86L1.41 6.03C1.79 6.29 2.23 6.52 2.71 6.71C3.05 6.85 3.42 6.97 3.81 7.08L3.81 10.63C3.61 10.56 3.42 10.49 3.24 10.42C2.59 10.16 2.11 9.86 1.8 9.57C1.49 9.28 1.41 9.04 1.41 8.86ZM5.22 10.99C6.19 11.18 7.29 11.29 8.47 11.29C9 11.29 9.52 11.27 10.02 11.22L10.02 7.62C9.51 7.66 9 7.68 8.47 7.68C7.32 7.68 6.22 7.58 5.22 7.41L5.22 10.99ZM11.43 7.45L11.43 11.04C12.29 10.89 13.06 10.68 13.69 10.42C14.34 10.16 14.83 9.86 15.13 9.57C15.44 9.28 15.52 9.04 15.52 8.86L15.52 6.03C15.14 6.29 14.7 6.52 14.22 6.71C13.42 7.03 12.47 7.29 11.43 7.45ZM16.11 10.59C16.32 10.39 16.51 10.16 16.65 9.91C18.26 10.01 19.69 10.32 20.75 10.75C21.4 11.01 21.88 11.3 22.19 11.6C22.5 11.89 22.58 12.13 22.58 12.31C22.58 12.49 22.5 12.73 22.19 13.02C21.88 13.31 21.4 13.61 20.75 13.87C19.45 14.4 17.6 14.74 15.52 14.74C13.45 14.74 11.6 14.4 10.3 13.87C9.65 13.61 9.16 13.31 8.86 13.02C8.74 12.91 8.65 12.8 8.59 12.7C10.75 12.69 12.74 12.33 14.22 11.73C14.97 11.43 15.63 11.05 16.11 10.59ZM21.28 15.18C21.76 14.99 22.2 14.76 22.58 14.5L22.58 17.33C22.58 17.51 22.5 17.75 22.19 18.04C21.88 18.33 21.4 18.63 20.75 18.89C20.12 19.15 19.35 19.36 18.49 19.51L18.49 15.92C19.53 15.76 20.48 15.5 21.28 15.18ZM10.87 19.1L10.87 15.55C10.48 15.44 10.11 15.32 9.77 15.18C9.29 14.99 8.85 14.76 8.47 14.5L8.47 17.33C8.47 17.51 8.55 17.75 8.86 18.04C9.16 18.33 9.65 18.63 10.3 18.89C10.48 18.96 10.67 19.03 10.87 19.1ZM17.08 16.09C16.57 16.13 16.05 16.15 15.52 16.15C14.38 16.15 13.28 16.05 12.28 15.88L12.28 19.46C13.25 19.65 14.35 19.76 15.52 19.76C16.06 19.76 16.58 19.74 17.08 19.69L17.08 16.09Z" fill="#FFFFFF" fill-opacity="1.000000" fill-rule="evenodd"/>
</svg>
