<svg width="24.000000" height="24.000000" viewBox="0 0 24 24" fill="none" xmlns="http://www.w3.org/2000/svg" xmlns:xlink="http://www.w3.org/1999/xlink">
	<desc>
			Created with Pixso.
	</desc>
	<defs/>
	<path id="Vector" d="M12.05 0L11.94 0C11.2 0 10.56 0 10.05 0.06C9.5 0.14 8.97 0.3 8.54 0.73C8.12 1.16 7.95 1.68 7.88 2.23C7.81 2.74 7.81 3.38 7.81 4.13L7.81 6.84C7.54 6.74 7.26 6.69 6.97 6.69L3.62 6.69C3.29 6.69 2.97 6.76 2.66 6.88C2.36 7.01 2.08 7.2 1.85 7.43C1.61 7.66 1.43 7.94 1.3 8.24C1.18 8.55 1.11 8.87 1.11 9.2L1.11 22.32L0.83 22.32C0.61 22.32 0.4 22.41 0.24 22.57C0.08 22.72 0 22.94 0 23.16C0 23.38 0.08 23.59 0.24 23.75C0.4 23.91 0.61 24 0.83 24L23.16 24C23.38 24 23.59 23.91 23.75 23.75C23.91 23.59 24 23.38 24 23.16C24 22.94 23.91 22.72 23.75 22.57C23.59 22.41 23.38 22.32 23.16 22.32L22.88 22.32L22.88 14.79C22.88 14.12 22.61 13.48 22.14 13.01C21.67 12.54 21.03 12.27 20.37 12.27L17.02 12.27C16.72 12.28 16.44 12.32 16.18 12.42L16.18 4.13C16.18 3.38 16.18 2.74 16.11 2.23C16.04 1.68 15.87 1.16 15.45 0.73C15.02 0.3 14.49 0.14 13.94 0.06C13.43 0 12.79 0 12.05 0L12.05 0ZM21.2 22.32L21.2 14.79C21.2 14.56 21.12 14.35 20.96 14.19C20.8 14.04 20.59 13.95 20.37 13.95L17.02 13.95C16.79 13.95 16.58 14.04 16.42 14.19C16.27 14.35 16.18 14.56 16.18 14.79L16.18 22.32L21.2 22.32ZM14.51 22.32L14.51 4.18C14.51 3.37 14.5 2.84 14.45 2.45C14.4 2.09 14.32 1.98 14.26 1.91C14.2 1.85 14.08 1.77 13.72 1.72C13.33 1.67 12.81 1.67 11.99 1.67C11.18 1.67 10.65 1.67 10.27 1.72C9.91 1.77 9.79 1.85 9.73 1.91C9.66 1.98 9.58 2.09 9.54 2.45C9.48 2.84 9.48 3.37 9.48 4.18L9.48 22.32L14.51 22.32ZM7.81 22.32L7.81 9.2C7.81 8.98 7.72 8.77 7.56 8.61C7.41 8.45 7.19 8.37 6.97 8.37L3.62 8.37C3.4 8.37 3.19 8.45 3.03 8.61C2.87 8.77 2.79 8.98 2.79 9.2L2.79 22.32L7.81 22.32Z" fill="#FFFFFF" fill-opacity="1.000000" fill-rule="evenodd"/>
</svg>
