<svg width="25.562500" height="25.562500" viewBox="0 0 25.5625 25.5625" fill="none" xmlns="http://www.w3.org/2000/svg" xmlns:xlink="http://www.w3.org/1999/xlink">
	<desc>
			Created with Pixso.
	</desc>
	<defs/>
	<path id="Vector" d="M11.44 10.78C11.44 8.94 14.43 7.44 18.11 7.44C21.79 7.44 24.78 8.94 24.78 10.78C24.78 12.62 21.79 14.11 18.11 14.11C14.43 14.11 11.44 12.62 11.44 10.78ZM11.44 16.11C11.44 17.95 14.43 19.44 18.11 19.44C21.79 19.44 24.78 17.95 24.78 16.11M0.78 9.44C0.78 11.28 3.76 12.78 7.44 12.78C8.94 12.78 10.33 12.53 11.44 12.11M0.78 14.11C0.78 15.95 3.76 17.44 7.44 17.44C8.94 17.44 10.33 17.2 11.44 16.78M14.11 8.11L14.11 4.11C14.11 2.27 11.12 0.78 7.44 0.78C3.76 0.78 0.78 2.27 0.78 4.11L0.78 18.78C0.78 20.62 3.76 22.11 7.44 22.11C8.94 22.11 10.33 21.86 11.44 21.44M11.44 10.78L11.44 21.44C11.44 23.28 14.43 24.78 18.11 24.78C21.79 24.78 24.78 23.28 24.78 21.44L24.78 10.78M14.11 4.11C14.11 5.95 11.12 7.44 7.44 7.44C3.76 7.44 0.78 5.95 0.78 4.11" stroke="#FFFFFF" stroke-opacity="1.000000" stroke-width="1.562500" stroke-linejoin="round" stroke-linecap="round"/>
</svg>
